<mxfile host="app.diagrams.net" modified="2023-07-02T18:35:11.736Z" agent="Mozilla/5.0 (Windows NT 10.0; Win64; x64) AppleWebKit/537.36 (KHTML, like Gecko) Chrome/114.0.0.0 Safari/537.36" etag="1BvjRFwphQRVHmmes8y6" version="21.5.2" type="device">
  <diagram name="Page-1" id="q2Vp0Qmm98i7bE1bU8zZ">
    <mxGraphModel dx="1185" dy="638" grid="0" gridSize="10" guides="1" tooltips="1" connect="1" arrows="1" fold="1" page="1" pageScale="1" pageWidth="1100" pageHeight="850" background="#ffffff" math="0" shadow="0">
      <root>
        <mxCell id="0" />
        <mxCell id="1" parent="0" />
        <mxCell id="E9Dsa_AQQ2K6NqvYsgmj-1" value="Gateway" style="rounded=0;whiteSpace=wrap;html=1;rotation=-90;fillColor=#1ba1e2;fontColor=#ffffff;strokeColor=#006EAF;" vertex="1" parent="1">
          <mxGeometry x="280" y="325" width="190" height="60" as="geometry" />
        </mxCell>
        <mxCell id="E9Dsa_AQQ2K6NqvYsgmj-2" value="" style="rounded=0;whiteSpace=wrap;html=1;rotation=0;fillColor=#647687;strokeColor=#314354;fontColor=#ffffff;labelPosition=center;verticalLabelPosition=middle;align=center;verticalAlign=middle;" vertex="1" parent="1">
          <mxGeometry x="40" y="260" width="200" height="190" as="geometry" />
        </mxCell>
        <mxCell id="E9Dsa_AQQ2K6NqvYsgmj-9" value="Service 1" style="rounded=0;whiteSpace=wrap;html=1;fillColor=#fa6800;fontColor=#000000;strokeColor=#C73500;" vertex="1" parent="1">
          <mxGeometry x="485" y="260" width="120" height="40" as="geometry" />
        </mxCell>
        <mxCell id="E9Dsa_AQQ2K6NqvYsgmj-10" value="Service 2" style="rounded=0;whiteSpace=wrap;html=1;fillColor=#f0a30a;fontColor=#000000;strokeColor=#BD7000;" vertex="1" parent="1">
          <mxGeometry x="485" y="310" width="120" height="40" as="geometry" />
        </mxCell>
        <mxCell id="E9Dsa_AQQ2K6NqvYsgmj-11" value="Service 3" style="rounded=0;whiteSpace=wrap;html=1;fillColor=#e3c800;fontColor=#000000;strokeColor=#B09500;" vertex="1" parent="1">
          <mxGeometry x="485" y="360" width="120" height="40" as="geometry" />
        </mxCell>
        <mxCell id="E9Dsa_AQQ2K6NqvYsgmj-12" value="Service 4" style="rounded=0;whiteSpace=wrap;html=1;fillColor=#76608a;fontColor=#ffffff;strokeColor=#432D57;" vertex="1" parent="1">
          <mxGeometry x="485" y="410" width="120" height="40" as="geometry" />
        </mxCell>
        <mxCell id="E9Dsa_AQQ2K6NqvYsgmj-14" value="" style="endArrow=classic;startArrow=classic;html=1;rounded=0;fillColor=#1ba1e2;strokeColor=#006EAF;" edge="1" parent="1">
          <mxGeometry width="50" height="50" relative="1" as="geometry">
            <mxPoint x="405" y="280" as="sourcePoint" />
            <mxPoint x="485" y="280" as="targetPoint" />
          </mxGeometry>
        </mxCell>
        <mxCell id="E9Dsa_AQQ2K6NqvYsgmj-17" value="" style="endArrow=classic;startArrow=classic;html=1;rounded=0;fillColor=#1ba1e2;strokeColor=#006EAF;" edge="1" parent="1">
          <mxGeometry width="50" height="50" relative="1" as="geometry">
            <mxPoint x="405" y="329.31" as="sourcePoint" />
            <mxPoint x="485" y="329.31" as="targetPoint" />
          </mxGeometry>
        </mxCell>
        <mxCell id="E9Dsa_AQQ2K6NqvYsgmj-18" value="" style="endArrow=classic;startArrow=classic;html=1;rounded=0;fillColor=#1ba1e2;strokeColor=#006EAF;" edge="1" parent="1">
          <mxGeometry width="50" height="50" relative="1" as="geometry">
            <mxPoint x="405" y="379.65999999999997" as="sourcePoint" />
            <mxPoint x="485" y="379.65999999999997" as="targetPoint" />
          </mxGeometry>
        </mxCell>
        <mxCell id="E9Dsa_AQQ2K6NqvYsgmj-19" value="" style="endArrow=classic;startArrow=classic;html=1;rounded=0;fillColor=#1ba1e2;strokeColor=#006EAF;" edge="1" parent="1">
          <mxGeometry width="50" height="50" relative="1" as="geometry">
            <mxPoint x="405" y="429.65999999999997" as="sourcePoint" />
            <mxPoint x="485" y="429.65999999999997" as="targetPoint" />
          </mxGeometry>
        </mxCell>
        <mxCell id="E9Dsa_AQQ2K6NqvYsgmj-25" value="" style="endArrow=none;html=1;rounded=0;fillColor=#1ba1e2;strokeColor=#006EAF;" edge="1" parent="1">
          <mxGeometry width="50" height="50" relative="1" as="geometry">
            <mxPoint x="314" y="400" as="sourcePoint" />
            <mxPoint x="344" y="400" as="targetPoint" />
          </mxGeometry>
        </mxCell>
        <mxCell id="E9Dsa_AQQ2K6NqvYsgmj-32" value="Redux/Flux" style="rounded=0;whiteSpace=wrap;html=1;labelPosition=center;verticalLabelPosition=top;align=center;verticalAlign=bottom;fillColor=#e3c800;fontColor=#dcc31e;strokeColor=#B09500;" vertex="1" parent="1">
          <mxGeometry x="130" y="371" width="90" height="59" as="geometry" />
        </mxCell>
        <mxCell id="E9Dsa_AQQ2K6NqvYsgmj-22" value="" style="shape=waypoint;sketch=0;fillStyle=solid;size=6;pointerEvents=1;points=[];fillColor=#1ba1e2;resizable=0;rotatable=0;perimeter=centerPerimeter;snapToPoint=1;fontColor=#ffffff;strokeColor=#006EAF;strokeWidth=2;" vertex="1" parent="1">
          <mxGeometry x="300" y="390" width="20" height="20" as="geometry" />
        </mxCell>
        <mxCell id="E9Dsa_AQQ2K6NqvYsgmj-35" value="" style="endArrow=classic;startArrow=classic;html=1;rounded=0;fillColor=#1ba1e2;strokeColor=#006EAF;exitX=1;exitY=0.5;exitDx=0;exitDy=0;" edge="1" parent="1" source="E9Dsa_AQQ2K6NqvYsgmj-40">
          <mxGeometry width="50" height="50" relative="1" as="geometry">
            <mxPoint x="220" y="400.16" as="sourcePoint" />
            <mxPoint x="300" y="400.16" as="targetPoint" />
          </mxGeometry>
        </mxCell>
        <mxCell id="E9Dsa_AQQ2K6NqvYsgmj-40" value="Bus" style="rounded=0;whiteSpace=wrap;html=1;fillColor=#dae8fc;strokeColor=#6c8ebf;gradientColor=#7ea6e0;" vertex="1" parent="1">
          <mxGeometry x="150" y="385.5" width="60" height="30" as="geometry" />
        </mxCell>
        <mxCell id="E9Dsa_AQQ2K6NqvYsgmj-42" value="" style="edgeStyle=elbowEdgeStyle;elbow=vertical;endArrow=classic;html=1;curved=0;rounded=0;endSize=8;startSize=8;fillColor=#e3c800;strokeColor=#B09500;entryX=0.5;entryY=1;entryDx=0;entryDy=0;" edge="1" parent="1" target="E9Dsa_AQQ2K6NqvYsgmj-43">
          <mxGeometry width="50" height="50" relative="1" as="geometry">
            <mxPoint x="130" y="400" as="sourcePoint" />
            <mxPoint x="90" y="350" as="targetPoint" />
            <Array as="points">
              <mxPoint x="130" y="399.75" />
            </Array>
          </mxGeometry>
        </mxCell>
        <mxCell id="E9Dsa_AQQ2K6NqvYsgmj-43" value="State" style="rounded=0;whiteSpace=wrap;html=1;fillColor=#cdeb8b;strokeColor=#36393d;fontColor=#67AB9F;" vertex="1" parent="1">
          <mxGeometry x="50" y="295" width="80" height="30" as="geometry" />
        </mxCell>
        <mxCell id="E9Dsa_AQQ2K6NqvYsgmj-44" value="Component" style="rounded=0;whiteSpace=wrap;html=1;fillColor=#ffcccc;strokeColor=#36393d;fontColor=#EA6B66;" vertex="1" parent="1">
          <mxGeometry x="150" y="295" width="80" height="30" as="geometry" />
        </mxCell>
        <mxCell id="E9Dsa_AQQ2K6NqvYsgmj-45" value="" style="endArrow=classic;html=1;rounded=0;exitX=0.5;exitY=1;exitDx=0;exitDy=0;entryX=0.75;entryY=0.474;entryDx=0;entryDy=0;entryPerimeter=0;fillColor=#e3c800;strokeColor=#B09500;" edge="1" parent="1" source="E9Dsa_AQQ2K6NqvYsgmj-44" target="E9Dsa_AQQ2K6NqvYsgmj-2">
          <mxGeometry width="50" height="50" relative="1" as="geometry">
            <mxPoint x="250" y="350" as="sourcePoint" />
            <mxPoint x="300" y="300" as="targetPoint" />
          </mxGeometry>
        </mxCell>
        <mxCell id="E9Dsa_AQQ2K6NqvYsgmj-46" value="" style="endArrow=classic;html=1;rounded=0;fillColor=#e3c800;strokeColor=#B09500;" edge="1" parent="1">
          <mxGeometry width="50" height="50" relative="1" as="geometry">
            <mxPoint x="130" y="310" as="sourcePoint" />
            <mxPoint x="150" y="310" as="targetPoint" />
          </mxGeometry>
        </mxCell>
      </root>
    </mxGraphModel>
  </diagram>
</mxfile>
